<?xml version="1.0" encoding="UTF-8" ?>
<svg version="1.1" width="500" height="500" xmlns="http://www.w3.org/2000/svg" shape-rendering="crispEdges">
<rect x="200" y="100" width="25" height="25" fill="#EF6E10" />
<rect x="225" y="100" width="25" height="25" fill="#ECAB11" />
<rect x="250" y="100" width="25" height="25" fill="#ECE910" />
<rect x="275" y="100" width="25" height="25" fill="#ECE910" />
<rect x="300" y="100" width="25" height="25" fill="#ECE910" />
<rect x="325" y="100" width="25" height="25" fill="#ECE910" />
<rect x="350" y="100" width="25" height="25" fill="#ECE910" />
<rect x="375" y="100" width="25" height="25" fill="#ECE910" />
<rect x="400" y="100" width="25" height="25" fill="#ECE910" />
<rect x="175" y="125" width="25" height="25" fill="#ECAB11" />
<rect x="200" y="125" width="25" height="25" fill="#ECAB11" />
<rect x="225" y="125" width="25" height="25" fill="#ECAB11" />
<rect x="250" y="125" width="25" height="25" fill="#ECAB11" />
<rect x="275" y="125" width="25" height="25" fill="#ECAB11" />
<rect x="300" y="125" width="25" height="25" fill="#ECAB11" />
<rect x="325" y="125" width="25" height="25" fill="#ECAB11" />
<rect x="350" y="125" width="25" height="25" fill="#EF6E10" />
<rect x="375" y="125" width="25" height="25" fill="#ECE910" />
<rect x="400" y="125" width="25" height="25" fill="#ECE910" />
<rect x="175" y="150" width="25" height="25" fill="#ECAB11" />
<rect x="200" y="150" width="25" height="25" fill="#EF6E10" />
<rect x="225" y="150" width="25" height="25" fill="#ECAB11" />
<rect x="250" y="150" width="25" height="25" fill="#ECAB11" />
<rect x="275" y="150" width="25" height="25" fill="#ECAB11" />
<rect x="300" y="150" width="25" height="25" fill="#ECE910" />
<rect x="325" y="150" width="25" height="25" fill="#EF6E10" />
<rect x="350" y="150" width="25" height="25" fill="#EF6E10" />
<rect x="375" y="150" width="25" height="25" fill="#ECE910" />
<rect x="400" y="150" width="25" height="25" fill="#ECE910" />
<rect x="425" y="150" width="25" height="25" fill="#ECE910" />
<rect x="200" y="175" width="25" height="25" fill="#EF6E10" />
<rect x="225" y="175" width="25" height="25" fill="#ECAB11" />
<rect x="250" y="175" width="25" height="25" fill="#ECAB11" />
<rect x="275" y="175" width="25" height="25" fill="#ECAB11" />
<rect x="300" y="175" width="25" height="25" fill="#ECAB11" />
<rect x="325" y="175" width="25" height="25" fill="#EF6E10" />
<rect x="350" y="175" width="25" height="25" fill="#ECAB11" />
<rect x="375" y="175" width="25" height="25" fill="#ECE910" />
<rect x="400" y="175" width="25" height="25" fill="#ECE910" />
<rect x="425" y="175" width="25" height="25" fill="#ECE910" />
<rect x="125" y="200" width="25" height="25" fill="#ECAB11" />
<rect x="150" y="200" width="25" height="25" fill="#ECAB11" />
<rect x="175" y="200" width="25" height="25" fill="#EF6E10" />
<rect x="200" y="200" width="25" height="25" fill="#ECAB11" />
<rect x="225" y="200" width="25" height="25" fill="#ECAB11" />
<rect x="250" y="200" width="25" height="25" fill="#ECAB11" />
<rect x="275" y="200" width="25" height="25" fill="#ECAB11" />
<rect x="300" y="200" width="25" height="25" fill="#ECAB11" />
<rect x="325" y="200" width="25" height="25" fill="#ECAB11" />
<rect x="350" y="200" width="25" height="25" fill="#ECE910" />
<rect x="375" y="200" width="25" height="25" fill="#ECE910" />
<rect x="400" y="200" width="25" height="25" fill="#ECE910" />
<rect x="125" y="225" width="25" height="25" fill="#ECAB11" />
<rect x="150" y="225" width="25" height="25" fill="#ECAB11" />
<rect x="175" y="225" width="25" height="25" fill="#ECAB11" />
<rect x="200" y="225" width="25" height="25" fill="#ECAB11" />
<rect x="225" y="225" width="25" height="25" fill="#ECAB11" />
<rect x="250" y="225" width="25" height="25" fill="#ECAB11" />
<rect x="275" y="225" width="25" height="25" fill="#ECAB11" />
<rect x="300" y="225" width="25" height="25" fill="#ECAB11" />
<rect x="325" y="225" width="25" height="25" fill="#ECAB11" />
<rect x="350" y="225" width="25" height="25" fill="#ECE910" />
<rect x="375" y="225" width="25" height="25" fill="#ECE910" />
<rect x="400" y="225" width="25" height="25" fill="#ECE910" />
<rect x="425" y="225" width="25" height="25" fill="#ECE910" />
<rect x="100" y="250" width="25" height="25" fill="#ECAB11" />
<rect x="125" y="250" width="25" height="25" fill="#ECAB11" />
<rect x="150" y="250" width="25" height="25" fill="#ECAB11" />
<rect x="175" y="250" width="25" height="25" fill="#ECE910" />
<rect x="200" y="250" width="25" height="25" fill="#EF6E10" />
<rect x="225" y="250" width="25" height="25" fill="#ECAB11" />
<rect x="250" y="250" width="25" height="25" fill="#ECAB11" />
<rect x="275" y="250" width="25" height="25" fill="#ECAB11" />
<rect x="300" y="250" width="25" height="25" fill="#ECAB11" />
<rect x="325" y="250" width="25" height="25" fill="#ECE910" />
<rect x="350" y="250" width="25" height="25" fill="#ECE910" />
<rect x="375" y="250" width="25" height="25" fill="#ECE910" />
<rect x="400" y="250" width="25" height="25" fill="#ECAB11" />
<rect x="425" y="250" width="25" height="25" fill="#ECE910" />
<rect x="450" y="250" width="25" height="25" fill="#ECE910" />
<rect x="75" y="275" width="25" height="25" fill="#ECAB11" />
<rect x="100" y="275" width="25" height="25" fill="#ECAB11" />
<rect x="125" y="275" width="25" height="25" fill="#ECAB11" />
<rect x="150" y="275" width="25" height="25" fill="#ECE910" />
<rect x="175" y="275" width="25" height="25" fill="#EF6E10" />
<rect x="200" y="275" width="25" height="25" fill="#EF6E10" />
<rect x="225" y="275" width="25" height="25" fill="#ECAB11" />
<rect x="250" y="275" width="25" height="25" fill="#ECAB11" />
<rect x="275" y="275" width="25" height="25" fill="#ECAB11" />
<rect x="300" y="275" width="25" height="25" fill="#ECE910" />
<rect x="325" y="275" width="25" height="25" fill="#ECE910" />
<rect x="350" y="275" width="25" height="25" fill="#ECE910" />
<rect x="375" y="275" width="25" height="25" fill="#ECE910" />
<rect x="400" y="275" width="25" height="25" fill="#ECAB11" />
<rect x="425" y="275" width="25" height="25" fill="#EF6E10" />
<rect x="450" y="275" width="25" height="25" fill="#ECE910" />
<rect x="75" y="300" width="25" height="25" fill="#ECAB11" />
<rect x="100" y="300" width="25" height="25" fill="#ECAB11" />
<rect x="125" y="300" width="25" height="25" fill="#ECAB11" />
<rect x="150" y="300" width="25" height="25" fill="#ECAB11" />
<rect x="175" y="300" width="25" height="25" fill="#EF6E10" />
<rect x="200" y="300" width="25" height="25" fill="#ECAB11" />
<rect x="225" y="300" width="25" height="25" fill="#ECAB11" />
<rect x="250" y="300" width="25" height="25" fill="#ECAB11" />
<rect x="275" y="300" width="25" height="25" fill="#ECAB11" />
<rect x="300" y="300" width="25" height="25" fill="#ECE910" />
<rect x="325" y="300" width="25" height="25" fill="#ECE910" />
<rect x="350" y="300" width="25" height="25" fill="#ECE910" />
<rect x="375" y="300" width="25" height="25" fill="#ECE910" />
<rect x="400" y="300" width="25" height="25" fill="#ECE910" />
<rect x="425" y="300" width="25" height="25" fill="#ECE910" />
<rect x="450" y="300" width="25" height="25" fill="#ECE910" />
<rect x="50" y="325" width="25" height="25" fill="#ECAB11" />
<rect x="75" y="325" width="25" height="25" fill="#EF6E10" />
<rect x="100" y="325" width="25" height="25" fill="#EF6E10" />
<rect x="125" y="325" width="25" height="25" fill="#ECAB11" />
<rect x="150" y="325" width="25" height="25" fill="#ECAB11" />
<rect x="175" y="325" width="25" height="25" fill="#ECAB11" />
<rect x="200" y="325" width="25" height="25" fill="#ECE910" />
<rect x="225" y="325" width="25" height="25" fill="#EF6E10" />
<rect x="250" y="325" width="25" height="25" fill="#EF6E10" />
<rect x="275" y="325" width="25" height="25" fill="#ECE910" />
<rect x="300" y="325" width="25" height="25" fill="#ECE910" />
<rect x="325" y="325" width="25" height="25" fill="#ECE910" />
<rect x="350" y="325" width="25" height="25" fill="#ECAB11" />
<rect x="375" y="325" width="25" height="25" fill="#ECE910" />
<rect x="400" y="325" width="25" height="25" fill="#ECE910" />
<rect x="425" y="325" width="25" height="25" fill="#ECE910" />
<rect x="450" y="325" width="25" height="25" fill="#ECE910" />
<rect x="75" y="350" width="25" height="25" fill="#EF6E10" />
<rect x="100" y="350" width="25" height="25" fill="#ECAB11" />
<rect x="125" y="350" width="25" height="25" fill="#ECAB11" />
<rect x="150" y="350" width="25" height="25" fill="#ECAB11" />
<rect x="175" y="350" width="25" height="25" fill="#ECAB11" />
<rect x="200" y="350" width="25" height="25" fill="#ECAB11" />
<rect x="225" y="350" width="25" height="25" fill="#EF6E10" />
<rect x="250" y="350" width="25" height="25" fill="#ECAB11" />
<rect x="275" y="350" width="25" height="25" fill="#ECE910" />
<rect x="300" y="350" width="25" height="25" fill="#ECE910" />
<rect x="325" y="350" width="25" height="25" fill="#ECE910" />
<rect x="350" y="350" width="25" height="25" fill="#ECAB11" />
<rect x="375" y="350" width="25" height="25" fill="#ECE910" />
<rect x="400" y="350" width="25" height="25" fill="#ECE910" />
<rect x="50" y="375" width="25" height="25" fill="#EF6E10" />
<rect x="75" y="375" width="25" height="25" fill="#EF6E10" />
<rect x="100" y="375" width="25" height="25" fill="#ECAB11" />
<rect x="125" y="375" width="25" height="25" fill="#ECAB11" />
<rect x="150" y="375" width="25" height="25" fill="#ECAB11" />
<rect x="175" y="375" width="25" height="25" fill="#ECAB11" />
<rect x="200" y="375" width="25" height="25" fill="#ECAB11" />
<rect x="225" y="375" width="25" height="25" fill="#ECE910" />
<rect x="250" y="375" width="25" height="25" fill="#ECAB11" />
<rect x="275" y="375" width="25" height="25" fill="#ECE910" />
<rect x="300" y="375" width="25" height="25" fill="#ECE910" />
<rect x="325" y="375" width="25" height="25" fill="#EF6E10" />
<rect x="350" y="375" width="25" height="25" fill="#ECAB11" />
<rect x="375" y="375" width="25" height="25" fill="#ECE910" />
<rect x="25" y="400" width="25" height="25" fill="#ECAB11" />
<rect x="50" y="400" width="25" height="25" fill="#ECAB11" />
<rect x="75" y="400" width="25" height="25" fill="#ECAB11" />
<rect x="100" y="400" width="25" height="25" fill="#ECAB11" />
<rect x="125" y="400" width="25" height="25" fill="#ECE910" />
<rect x="150" y="400" width="25" height="25" fill="#ECE910" />
<rect x="175" y="400" width="25" height="25" fill="#EF6E10" />
<rect x="200" y="400" width="25" height="25" fill="#ECE910" />
<rect x="225" y="400" width="25" height="25" fill="#ECE910" />
<rect x="250" y="400" width="25" height="25" fill="#ECE910" />
<rect x="275" y="400" width="25" height="25" fill="#ECE910" />
</svg>