<?xml version="1.0" encoding="UTF-8" ?>
<svg version="1.1" width="1375" height="175" xmlns="http://www.w3.org/2000/svg" shape-rendering="crispEdges">
<rect x="25" y="25" width="25" height="25" fill="#FFFFFF" />
<rect x="50" y="25" width="25" height="25" fill="#FFFFFF" />
<rect x="75" y="25" width="25" height="25" fill="#FFFFFF" />
<rect x="100" y="25" width="25" height="25" fill="#FFFFFF" />
<rect x="200" y="25" width="25" height="25" fill="#FFFFFF" />
<rect x="225" y="25" width="25" height="25" fill="#FFFFFF" />
<rect x="250" y="25" width="25" height="25" fill="#FFFFFF" />
<rect x="325" y="25" width="25" height="25" fill="#FFFFFF" />
<rect x="425" y="25" width="25" height="25" fill="#FFFFFF" />
<rect x="475" y="25" width="25" height="25" fill="#FFFFFF" />
<rect x="500" y="25" width="25" height="25" fill="#FFFFFF" />
<rect x="525" y="25" width="25" height="25" fill="#FFFFFF" />
<rect x="550" y="25" width="25" height="25" fill="#FFFFFF" />
<rect x="575" y="25" width="25" height="25" fill="#FFFFFF" />
<rect x="625" y="25" width="25" height="25" fill="#FFFFFF" />
<rect x="650" y="25" width="25" height="25" fill="#FFFFFF" />
<rect x="675" y="25" width="25" height="25" fill="#FFFFFF" />
<rect x="700" y="25" width="25" height="25" fill="#FFFFFF" />
<rect x="725" y="25" width="25" height="25" fill="#FFFFFF" />
<rect x="775" y="25" width="25" height="25" fill="#FFFFFF" />
<rect x="800" y="25" width="25" height="25" fill="#FFFFFF" />
<rect x="825" y="25" width="25" height="25" fill="#FFFFFF" />
<rect x="850" y="25" width="25" height="25" fill="#FFFFFF" />
<rect x="875" y="25" width="25" height="25" fill="#FFFFFF" />
<rect x="950" y="25" width="25" height="25" fill="#FFFFFF" />
<rect x="975" y="25" width="25" height="25" fill="#FFFFFF" />
<rect x="1000" y="25" width="25" height="25" fill="#FFFFFF" />
<rect x="1100" y="25" width="25" height="25" fill="#FFFFFF" />
<rect x="1125" y="25" width="25" height="25" fill="#FFFFFF" />
<rect x="1150" y="25" width="25" height="25" fill="#FFFFFF" />
<rect x="1225" y="25" width="25" height="25" fill="#FFFFFF" />
<rect x="1250" y="25" width="25" height="25" fill="#FFFFFF" />
<rect x="1275" y="25" width="25" height="25" fill="#FFFFFF" />
<rect x="1300" y="25" width="25" height="25" fill="#FFFFFF" />
<rect x="25" y="50" width="25" height="25" fill="#FFFFFF" />
<rect x="75" y="50" width="25" height="25" fill="#FFFFFF" />
<rect x="125" y="50" width="25" height="25" fill="#FFFFFF" />
<rect x="175" y="50" width="25" height="25" fill="#FFFFFF" />
<rect x="275" y="50" width="25" height="25" fill="#FFFFFF" />
<rect x="325" y="50" width="25" height="25" fill="#FFFFFF" />
<rect x="425" y="50" width="25" height="25" fill="#FFFFFF" />
<rect x="475" y="50" width="25" height="25" fill="#FFFFFF" />
<rect x="625" y="50" width="25" height="25" fill="#FFFFFF" />
<rect x="775" y="50" width="25" height="25" fill="#FFFFFF" />
<rect x="925" y="50" width="25" height="25" fill="#FFFFFF" />
<rect x="1025" y="50" width="25" height="25" fill="#FFFFFF" />
<rect x="1075" y="50" width="25" height="25" fill="#FFFFFF" />
<rect x="1175" y="50" width="25" height="25" fill="#FFFFFF" />
<rect x="1225" y="50" width="25" height="25" fill="#FFFFFF" />
<rect x="1325" y="50" width="25" height="25" fill="#FFFFFF" />
<rect x="25" y="75" width="25" height="25" fill="#FFFFFF" />
<rect x="75" y="75" width="25" height="25" fill="#FFFFFF" />
<rect x="125" y="75" width="25" height="25" fill="#FFFFFF" />
<rect x="175" y="75" width="25" height="25" fill="#FFFFFF" />
<rect x="275" y="75" width="25" height="25" fill="#FFFFFF" />
<rect x="325" y="75" width="25" height="25" fill="#FFFFFF" />
<rect x="425" y="75" width="25" height="25" fill="#FFFFFF" />
<rect x="475" y="75" width="25" height="25" fill="#FFFFFF" />
<rect x="500" y="75" width="25" height="25" fill="#FFFFFF" />
<rect x="525" y="75" width="25" height="25" fill="#FFFFFF" />
<rect x="550" y="75" width="25" height="25" fill="#FFFFFF" />
<rect x="575" y="75" width="25" height="25" fill="#FFFFFF" />
<rect x="625" y="75" width="25" height="25" fill="#FFFFFF" />
<rect x="650" y="75" width="25" height="25" fill="#FFFFFF" />
<rect x="675" y="75" width="25" height="25" fill="#FFFFFF" />
<rect x="775" y="75" width="25" height="25" fill="#FFFFFF" />
<rect x="800" y="75" width="25" height="25" fill="#FFFFFF" />
<rect x="825" y="75" width="25" height="25" fill="#FFFFFF" />
<rect x="925" y="75" width="25" height="25" fill="#FFFFFF" />
<rect x="1025" y="75" width="25" height="25" fill="#FFFFFF" />
<rect x="1075" y="75" width="25" height="25" fill="#FFFFFF" />
<rect x="1175" y="75" width="25" height="25" fill="#FFFFFF" />
<rect x="1225" y="75" width="25" height="25" fill="#FFFFFF" />
<rect x="1325" y="75" width="25" height="25" fill="#FFFFFF" />
<rect x="25" y="100" width="25" height="25" fill="#FFFFFF" />
<rect x="75" y="100" width="25" height="25" fill="#FFFFFF" />
<rect x="125" y="100" width="25" height="25" fill="#FFFFFF" />
<rect x="175" y="100" width="25" height="25" fill="#FFFFFF" />
<rect x="275" y="100" width="25" height="25" fill="#FFFFFF" />
<rect x="325" y="100" width="25" height="25" fill="#FFFFFF" />
<rect x="425" y="100" width="25" height="25" fill="#FFFFFF" />
<rect x="575" y="100" width="25" height="25" fill="#FFFFFF" />
<rect x="625" y="100" width="25" height="25" fill="#FFFFFF" />
<rect x="775" y="100" width="25" height="25" fill="#FFFFFF" />
<rect x="925" y="100" width="25" height="25" fill="#FFFFFF" />
<rect x="1025" y="100" width="25" height="25" fill="#FFFFFF" />
<rect x="1075" y="100" width="25" height="25" fill="#FFFFFF" />
<rect x="1175" y="100" width="25" height="25" fill="#FFFFFF" />
<rect x="1225" y="100" width="25" height="25" fill="#FFFFFF" />
<rect x="1325" y="100" width="25" height="25" fill="#FFFFFF" />
<rect x="25" y="125" width="25" height="25" fill="#FFFFFF" />
<rect x="75" y="125" width="25" height="25" fill="#FFFFFF" />
<rect x="125" y="125" width="25" height="25" fill="#FFFFFF" />
<rect x="200" y="125" width="25" height="25" fill="#FFFFFF" />
<rect x="225" y="125" width="25" height="25" fill="#FFFFFF" />
<rect x="250" y="125" width="25" height="25" fill="#FFFFFF" />
<rect x="350" y="125" width="25" height="25" fill="#FFFFFF" />
<rect x="375" y="125" width="25" height="25" fill="#FFFFFF" />
<rect x="400" y="125" width="25" height="25" fill="#FFFFFF" />
<rect x="475" y="125" width="25" height="25" fill="#FFFFFF" />
<rect x="500" y="125" width="25" height="25" fill="#FFFFFF" />
<rect x="525" y="125" width="25" height="25" fill="#FFFFFF" />
<rect x="550" y="125" width="25" height="25" fill="#FFFFFF" />
<rect x="575" y="125" width="25" height="25" fill="#FFFFFF" />
<rect x="625" y="125" width="25" height="25" fill="#FFFFFF" />
<rect x="650" y="125" width="25" height="25" fill="#FFFFFF" />
<rect x="675" y="125" width="25" height="25" fill="#FFFFFF" />
<rect x="700" y="125" width="25" height="25" fill="#FFFFFF" />
<rect x="725" y="125" width="25" height="25" fill="#FFFFFF" />
<rect x="775" y="125" width="25" height="25" fill="#FFFFFF" />
<rect x="950" y="125" width="25" height="25" fill="#FFFFFF" />
<rect x="975" y="125" width="25" height="25" fill="#FFFFFF" />
<rect x="1000" y="125" width="25" height="25" fill="#FFFFFF" />
<rect x="1100" y="125" width="25" height="25" fill="#FFFFFF" />
<rect x="1125" y="125" width="25" height="25" fill="#FFFFFF" />
<rect x="1150" y="125" width="25" height="25" fill="#FFFFFF" />
<rect x="1225" y="125" width="25" height="25" fill="#FFFFFF" />
<rect x="1250" y="125" width="25" height="25" fill="#FFFFFF" />
<rect x="1275" y="125" width="25" height="25" fill="#FFFFFF" />
<rect x="1300" y="125" width="25" height="25" fill="#FFFFFF" />
</svg>