<?xml version="1.0" encoding="UTF-8" ?>
<svg version="1.1" width="1100" height="375" xmlns="http://www.w3.org/2000/svg" shape-rendering="crispEdges">
<rect x="775" y="25" width="25" height="25" fill="#EF6E10" />
<rect x="800" y="25" width="25" height="25" fill="#ECAB11" />
<rect x="825" y="25" width="25" height="25" fill="#ECE910" />
<rect x="850" y="25" width="25" height="25" fill="#ECE910" />
<rect x="875" y="25" width="25" height="25" fill="#ECE910" />
<rect x="900" y="25" width="25" height="25" fill="#ECE910" />
<rect x="925" y="25" width="25" height="25" fill="#ECE910" />
<rect x="950" y="25" width="25" height="25" fill="#ECE910" />
<rect x="975" y="25" width="25" height="25" fill="#ECE910" />
<rect x="50" y="50" width="25" height="25" fill="#8B97B6" />
<rect x="75" y="50" width="25" height="25" fill="#8B97B6" />
<rect x="100" y="50" width="25" height="25" fill="#8B97B6" />
<rect x="125" y="50" width="25" height="25" fill="#8B97B6" />
<rect x="225" y="50" width="25" height="25" fill="#8B97B6" />
<rect x="250" y="50" width="25" height="25" fill="#8B97B6" />
<rect x="275" y="50" width="25" height="25" fill="#8B97B6" />
<rect x="350" y="50" width="25" height="25" fill="#8B97B6" />
<rect x="450" y="50" width="25" height="25" fill="#8B97B6" />
<rect x="500" y="50" width="25" height="25" fill="#8B97B6" />
<rect x="525" y="50" width="25" height="25" fill="#8B97B6" />
<rect x="550" y="50" width="25" height="25" fill="#8B97B6" />
<rect x="575" y="50" width="25" height="25" fill="#8B97B6" />
<rect x="600" y="50" width="25" height="25" fill="#8B97B6" />
<rect x="650" y="50" width="25" height="25" fill="#8B97B6" />
<rect x="675" y="50" width="25" height="25" fill="#8B97B6" />
<rect x="700" y="50" width="25" height="25" fill="#353658" />
<rect x="725" y="50" width="25" height="25" fill="#353658" />
<rect x="750" y="50" width="25" height="25" fill="#ECAB11" />
<rect x="775" y="50" width="25" height="25" fill="#ECAB11" />
<rect x="800" y="50" width="25" height="25" fill="#ECAB11" />
<rect x="825" y="50" width="25" height="25" fill="#ECAB11" />
<rect x="850" y="50" width="25" height="25" fill="#ECAB11" />
<rect x="875" y="50" width="25" height="25" fill="#ECAB11" />
<rect x="900" y="50" width="25" height="25" fill="#ECAB11" />
<rect x="925" y="50" width="25" height="25" fill="#EF6E10" />
<rect x="950" y="50" width="25" height="25" fill="#ECE910" />
<rect x="975" y="50" width="25" height="25" fill="#ECE910" />
<rect x="50" y="75" width="25" height="25" fill="#8B97B6" />
<rect x="100" y="75" width="25" height="25" fill="#8B97B6" />
<rect x="150" y="75" width="25" height="25" fill="#8B97B6" />
<rect x="200" y="75" width="25" height="25" fill="#8B97B6" />
<rect x="300" y="75" width="25" height="25" fill="#8B97B6" />
<rect x="350" y="75" width="25" height="25" fill="#8B97B6" />
<rect x="450" y="75" width="25" height="25" fill="#8B97B6" />
<rect x="500" y="75" width="25" height="25" fill="#8B97B6" />
<rect x="650" y="75" width="25" height="25" fill="#8B97B6" />
<rect x="750" y="75" width="25" height="25" fill="#ECAB11" />
<rect x="775" y="75" width="25" height="25" fill="#EF6E10" />
<rect x="800" y="75" width="25" height="25" fill="#ECAB11" />
<rect x="825" y="75" width="25" height="25" fill="#ECAB11" />
<rect x="850" y="75" width="25" height="25" fill="#ECAB11" />
<rect x="875" y="75" width="25" height="25" fill="#ECE910" />
<rect x="900" y="75" width="25" height="25" fill="#EF6E10" />
<rect x="925" y="75" width="25" height="25" fill="#EF6E10" />
<rect x="950" y="75" width="25" height="25" fill="#ECE910" />
<rect x="975" y="75" width="25" height="25" fill="#ECE910" />
<rect x="1000" y="75" width="25" height="25" fill="#ECE910" />
<rect x="50" y="100" width="25" height="25" fill="#8B97B6" />
<rect x="100" y="100" width="25" height="25" fill="#8B97B6" />
<rect x="150" y="100" width="25" height="25" fill="#8B97B6" />
<rect x="200" y="100" width="25" height="25" fill="#8B97B6" />
<rect x="300" y="100" width="25" height="25" fill="#8B97B6" />
<rect x="350" y="100" width="25" height="25" fill="#8B97B6" />
<rect x="450" y="100" width="25" height="25" fill="#8B97B6" />
<rect x="500" y="100" width="25" height="25" fill="#8B97B6" />
<rect x="525" y="100" width="25" height="25" fill="#8B97B6" />
<rect x="550" y="100" width="25" height="25" fill="#8B97B6" />
<rect x="575" y="100" width="25" height="25" fill="#8B97B6" />
<rect x="600" y="100" width="25" height="25" fill="#8B97B6" />
<rect x="650" y="100" width="25" height="25" fill="#353658" />
<rect x="675" y="100" width="25" height="25" fill="#353658" />
<rect x="700" y="100" width="25" height="25" fill="#353658" />
<rect x="775" y="100" width="25" height="25" fill="#EF6E10" />
<rect x="800" y="100" width="25" height="25" fill="#ECAB11" />
<rect x="825" y="100" width="25" height="25" fill="#ECAB11" />
<rect x="850" y="100" width="25" height="25" fill="#ECAB11" />
<rect x="875" y="100" width="25" height="25" fill="#ECAB11" />
<rect x="900" y="100" width="25" height="25" fill="#EF6E10" />
<rect x="925" y="100" width="25" height="25" fill="#ECAB11" />
<rect x="950" y="100" width="25" height="25" fill="#ECE910" />
<rect x="975" y="100" width="25" height="25" fill="#ECE910" />
<rect x="1000" y="100" width="25" height="25" fill="#ECE910" />
<rect x="50" y="125" width="25" height="25" fill="#8B97B6" />
<rect x="100" y="125" width="25" height="25" fill="#8B97B6" />
<rect x="150" y="125" width="25" height="25" fill="#8B97B6" />
<rect x="200" y="125" width="25" height="25" fill="#8B97B6" />
<rect x="300" y="125" width="25" height="25" fill="#8B97B6" />
<rect x="350" y="125" width="25" height="25" fill="#8B97B6" />
<rect x="450" y="125" width="25" height="25" fill="#8B97B6" />
<rect x="600" y="125" width="25" height="25" fill="#353658" />
<rect x="650" y="125" width="25" height="25" fill="#353658" />
<rect x="700" y="125" width="25" height="25" fill="#ECAB11" />
<rect x="725" y="125" width="25" height="25" fill="#ECAB11" />
<rect x="750" y="125" width="25" height="25" fill="#EF6E10" />
<rect x="775" y="125" width="25" height="25" fill="#ECAB11" />
<rect x="800" y="125" width="25" height="25" fill="#ECAB11" />
<rect x="825" y="125" width="25" height="25" fill="#ECAB11" />
<rect x="850" y="125" width="25" height="25" fill="#ECAB11" />
<rect x="875" y="125" width="25" height="25" fill="#ECAB11" />
<rect x="900" y="125" width="25" height="25" fill="#ECAB11" />
<rect x="925" y="125" width="25" height="25" fill="#ECE910" />
<rect x="950" y="125" width="25" height="25" fill="#ECE910" />
<rect x="975" y="125" width="25" height="25" fill="#ECE910" />
<rect x="50" y="150" width="25" height="25" fill="#8B97B6" />
<rect x="100" y="150" width="25" height="25" fill="#8B97B6" />
<rect x="150" y="150" width="25" height="25" fill="#8B97B6" />
<rect x="225" y="150" width="25" height="25" fill="#8B97B6" />
<rect x="250" y="150" width="25" height="25" fill="#8B97B6" />
<rect x="275" y="150" width="25" height="25" fill="#8B97B6" />
<rect x="375" y="150" width="25" height="25" fill="#8B97B6" />
<rect x="400" y="150" width="25" height="25" fill="#8B97B6" />
<rect x="425" y="150" width="25" height="25" fill="#8B97B6" />
<rect x="500" y="150" width="25" height="25" fill="#8B97B6" />
<rect x="525" y="150" width="25" height="25" fill="#353658" />
<rect x="550" y="150" width="25" height="25" fill="#353658" />
<rect x="575" y="150" width="25" height="25" fill="#353658" />
<rect x="600" y="150" width="25" height="25" fill="#353658" />
<rect x="650" y="150" width="25" height="25" fill="#353658" />
<rect x="675" y="150" width="25" height="25" fill="#353658" />
<rect x="700" y="150" width="25" height="25" fill="#ECAB11" />
<rect x="725" y="150" width="25" height="25" fill="#ECAB11" />
<rect x="750" y="150" width="25" height="25" fill="#ECAB11" />
<rect x="775" y="150" width="25" height="25" fill="#ECAB11" />
<rect x="800" y="150" width="25" height="25" fill="#ECAB11" />
<rect x="825" y="150" width="25" height="25" fill="#ECAB11" />
<rect x="850" y="150" width="25" height="25" fill="#ECAB11" />
<rect x="875" y="150" width="25" height="25" fill="#ECAB11" />
<rect x="900" y="150" width="25" height="25" fill="#ECAB11" />
<rect x="925" y="150" width="25" height="25" fill="#ECE910" />
<rect x="950" y="150" width="25" height="25" fill="#ECE910" />
<rect x="975" y="150" width="25" height="25" fill="#ECE910" />
<rect x="1000" y="150" width="25" height="25" fill="#ECE910" />
<rect x="675" y="175" width="25" height="25" fill="#ECAB11" />
<rect x="700" y="175" width="25" height="25" fill="#ECAB11" />
<rect x="725" y="175" width="25" height="25" fill="#ECAB11" />
<rect x="750" y="175" width="25" height="25" fill="#ECE910" />
<rect x="775" y="175" width="25" height="25" fill="#EF6E10" />
<rect x="800" y="175" width="25" height="25" fill="#ECAB11" />
<rect x="825" y="175" width="25" height="25" fill="#ECAB11" />
<rect x="850" y="175" width="25" height="25" fill="#ECAB11" />
<rect x="875" y="175" width="25" height="25" fill="#ECAB11" />
<rect x="900" y="175" width="25" height="25" fill="#ECE910" />
<rect x="925" y="175" width="25" height="25" fill="#ECE910" />
<rect x="950" y="175" width="25" height="25" fill="#ECE910" />
<rect x="975" y="175" width="25" height="25" fill="#ECAB11" />
<rect x="1000" y="175" width="25" height="25" fill="#ECE910" />
<rect x="1025" y="175" width="25" height="25" fill="#ECE910" />
<rect x="50" y="200" width="25" height="25" fill="#8B97B6" />
<rect x="75" y="200" width="25" height="25" fill="#8B97B6" />
<rect x="100" y="200" width="25" height="25" fill="#8B97B6" />
<rect x="125" y="200" width="25" height="25" fill="#8B97B6" />
<rect x="150" y="200" width="25" height="25" fill="#8B97B6" />
<rect x="225" y="200" width="25" height="25" fill="#8B97B6" />
<rect x="250" y="200" width="25" height="25" fill="#8B97B6" />
<rect x="275" y="200" width="25" height="25" fill="#8B97B6" />
<rect x="375" y="200" width="25" height="25" fill="#8B97B6" />
<rect x="400" y="200" width="25" height="25" fill="#8B97B6" />
<rect x="425" y="200" width="25" height="25" fill="#8B97B6" />
<rect x="500" y="200" width="25" height="25" fill="#353658" />
<rect x="525" y="200" width="25" height="25" fill="#353658" />
<rect x="550" y="200" width="25" height="25" fill="#353658" />
<rect x="575" y="200" width="25" height="25" fill="#353658" />
<rect x="650" y="200" width="25" height="25" fill="#ECAB11" />
<rect x="675" y="200" width="25" height="25" fill="#ECAB11" />
<rect x="700" y="200" width="25" height="25" fill="#ECAB11" />
<rect x="725" y="200" width="25" height="25" fill="#ECE910" />
<rect x="750" y="200" width="25" height="25" fill="#EF6E10" />
<rect x="775" y="200" width="25" height="25" fill="#EF6E10" />
<rect x="800" y="200" width="25" height="25" fill="#ECAB11" />
<rect x="825" y="200" width="25" height="25" fill="#ECAB11" />
<rect x="850" y="200" width="25" height="25" fill="#ECAB11" />
<rect x="875" y="200" width="25" height="25" fill="#ECE910" />
<rect x="900" y="200" width="25" height="25" fill="#ECE910" />
<rect x="925" y="200" width="25" height="25" fill="#ECE910" />
<rect x="950" y="200" width="25" height="25" fill="#ECE910" />
<rect x="975" y="200" width="25" height="25" fill="#ECAB11" />
<rect x="1000" y="200" width="25" height="25" fill="#EF6E10" />
<rect x="1025" y="200" width="25" height="25" fill="#ECE910" />
<rect x="50" y="225" width="25" height="25" fill="#8B97B6" />
<rect x="200" y="225" width="25" height="25" fill="#8B97B6" />
<rect x="300" y="225" width="25" height="25" fill="#8B97B6" />
<rect x="350" y="225" width="25" height="25" fill="#8B97B6" />
<rect x="450" y="225" width="25" height="25" fill="#353658" />
<rect x="500" y="225" width="25" height="25" fill="#353658" />
<rect x="600" y="225" width="25" height="25" fill="#353658" />
<rect x="650" y="225" width="25" height="25" fill="#ECAB11" />
<rect x="675" y="225" width="25" height="25" fill="#ECAB11" />
<rect x="700" y="225" width="25" height="25" fill="#ECAB11" />
<rect x="725" y="225" width="25" height="25" fill="#ECAB11" />
<rect x="750" y="225" width="25" height="25" fill="#EF6E10" />
<rect x="775" y="225" width="25" height="25" fill="#ECAB11" />
<rect x="800" y="225" width="25" height="25" fill="#ECAB11" />
<rect x="825" y="225" width="25" height="25" fill="#ECAB11" />
<rect x="850" y="225" width="25" height="25" fill="#ECAB11" />
<rect x="875" y="225" width="25" height="25" fill="#ECE910" />
<rect x="900" y="225" width="25" height="25" fill="#ECE910" />
<rect x="925" y="225" width="25" height="25" fill="#ECE910" />
<rect x="950" y="225" width="25" height="25" fill="#ECE910" />
<rect x="975" y="225" width="25" height="25" fill="#ECE910" />
<rect x="1000" y="225" width="25" height="25" fill="#ECE910" />
<rect x="1025" y="225" width="25" height="25" fill="#ECE910" />
<rect x="50" y="250" width="25" height="25" fill="#8B97B6" />
<rect x="75" y="250" width="25" height="25" fill="#8B97B6" />
<rect x="100" y="250" width="25" height="25" fill="#8B97B6" />
<rect x="200" y="250" width="25" height="25" fill="#8B97B6" />
<rect x="300" y="250" width="25" height="25" fill="#8B97B6" />
<rect x="350" y="250" width="25" height="25" fill="#353658" />
<rect x="450" y="250" width="25" height="25" fill="#353658" />
<rect x="500" y="250" width="25" height="25" fill="#353658" />
<rect x="600" y="250" width="25" height="25" fill="#353658" />
<rect x="625" y="250" width="25" height="25" fill="#ECAB11" />
<rect x="650" y="250" width="25" height="25" fill="#EF6E10" />
<rect x="675" y="250" width="25" height="25" fill="#EF6E10" />
<rect x="700" y="250" width="25" height="25" fill="#ECAB11" />
<rect x="725" y="250" width="25" height="25" fill="#ECAB11" />
<rect x="750" y="250" width="25" height="25" fill="#ECAB11" />
<rect x="775" y="250" width="25" height="25" fill="#ECE910" />
<rect x="800" y="250" width="25" height="25" fill="#EF6E10" />
<rect x="825" y="250" width="25" height="25" fill="#EF6E10" />
<rect x="850" y="250" width="25" height="25" fill="#ECE910" />
<rect x="875" y="250" width="25" height="25" fill="#ECE910" />
<rect x="900" y="250" width="25" height="25" fill="#ECE910" />
<rect x="925" y="250" width="25" height="25" fill="#ECAB11" />
<rect x="950" y="250" width="25" height="25" fill="#ECE910" />
<rect x="975" y="250" width="25" height="25" fill="#ECE910" />
<rect x="1000" y="250" width="25" height="25" fill="#ECE910" />
<rect x="1025" y="250" width="25" height="25" fill="#ECE910" />
<rect x="50" y="275" width="25" height="25" fill="#8B97B6" />
<rect x="200" y="275" width="25" height="25" fill="#8B97B6" />
<rect x="300" y="275" width="25" height="25" fill="#353658" />
<rect x="350" y="275" width="25" height="25" fill="#353658" />
<rect x="450" y="275" width="25" height="25" fill="#353658" />
<rect x="500" y="275" width="25" height="25" fill="#353658" />
<rect x="600" y="275" width="25" height="25" fill="#353658" />
<rect x="650" y="275" width="25" height="25" fill="#EF6E10" />
<rect x="675" y="275" width="25" height="25" fill="#ECAB11" />
<rect x="700" y="275" width="25" height="25" fill="#ECAB11" />
<rect x="725" y="275" width="25" height="25" fill="#ECAB11" />
<rect x="750" y="275" width="25" height="25" fill="#ECAB11" />
<rect x="775" y="275" width="25" height="25" fill="#ECAB11" />
<rect x="800" y="275" width="25" height="25" fill="#EF6E10" />
<rect x="825" y="275" width="25" height="25" fill="#ECAB11" />
<rect x="850" y="275" width="25" height="25" fill="#ECE910" />
<rect x="875" y="275" width="25" height="25" fill="#ECE910" />
<rect x="900" y="275" width="25" height="25" fill="#ECE910" />
<rect x="925" y="275" width="25" height="25" fill="#ECAB11" />
<rect x="950" y="275" width="25" height="25" fill="#ECE910" />
<rect x="975" y="275" width="25" height="25" fill="#ECE910" />
<rect x="50" y="300" width="25" height="25" fill="#8B97B6" />
<rect x="225" y="300" width="25" height="25" fill="#8B97B6" />
<rect x="250" y="300" width="25" height="25" fill="#8B97B6" />
<rect x="275" y="300" width="25" height="25" fill="#353658" />
<rect x="375" y="300" width="25" height="25" fill="#353658" />
<rect x="400" y="300" width="25" height="25" fill="#353658" />
<rect x="425" y="300" width="25" height="25" fill="#353658" />
<rect x="450" y="300" width="25" height="25" fill="#ECAB11" />
<rect x="500" y="300" width="25" height="25" fill="#353658" />
<rect x="525" y="300" width="25" height="25" fill="#353658" />
<rect x="550" y="300" width="25" height="25" fill="#353658" />
<rect x="575" y="300" width="25" height="25" fill="#353658" />
<rect x="625" y="300" width="25" height="25" fill="#EF6E10" />
<rect x="650" y="300" width="25" height="25" fill="#EF6E10" />
<rect x="675" y="300" width="25" height="25" fill="#ECAB11" />
<rect x="700" y="300" width="25" height="25" fill="#ECAB11" />
<rect x="725" y="300" width="25" height="25" fill="#ECAB11" />
<rect x="750" y="300" width="25" height="25" fill="#ECAB11" />
<rect x="775" y="300" width="25" height="25" fill="#ECAB11" />
<rect x="800" y="300" width="25" height="25" fill="#ECE910" />
<rect x="825" y="300" width="25" height="25" fill="#ECAB11" />
<rect x="850" y="300" width="25" height="25" fill="#ECE910" />
<rect x="875" y="300" width="25" height="25" fill="#ECE910" />
<rect x="900" y="300" width="25" height="25" fill="#EF6E10" />
<rect x="925" y="300" width="25" height="25" fill="#ECAB11" />
<rect x="950" y="300" width="25" height="25" fill="#ECE910" />
<rect x="425" y="325" width="25" height="25" fill="#EF6E10" />
<rect x="450" y="325" width="25" height="25" fill="#ECAB11" />
<rect x="475" y="325" width="25" height="25" fill="#ECE910" />
<rect x="550" y="325" width="25" height="25" fill="#ECAB11" />
<rect x="600" y="325" width="25" height="25" fill="#ECAB11" />
<rect x="625" y="325" width="25" height="25" fill="#ECAB11" />
<rect x="650" y="325" width="25" height="25" fill="#ECAB11" />
<rect x="675" y="325" width="25" height="25" fill="#ECAB11" />
<rect x="700" y="325" width="25" height="25" fill="#ECE910" />
<rect x="725" y="325" width="25" height="25" fill="#ECE910" />
<rect x="750" y="325" width="25" height="25" fill="#EF6E10" />
<rect x="775" y="325" width="25" height="25" fill="#ECE910" />
<rect x="800" y="325" width="25" height="25" fill="#ECE910" />
<rect x="825" y="325" width="25" height="25" fill="#ECE910" />
<rect x="850" y="325" width="25" height="25" fill="#ECE910" />
</svg>